<?xml version="1.0" encoding="iso-8859-1"?>
<!-- Generator: Adobe Illustrator 19.0.0, SVG Export Plug-In . SVG Version: 6.00 Build 0)  -->
<!-- License: CC0. Made by SVG Repo: https://www.svgrepo.com/svg/276415/bill -->
<svg version="1.1" id="Layer_1" xmlns="http://www.w3.org/2000/svg" xmlns:xlink="http://www.w3.org/1999/xlink" x="0px" y="0px"
	 viewBox="0 0 512.017 512.017" style="enable-background:new 0 0 512.017 512.017; fill:#FFFFFF;" xml:space="preserve">
<g transform="translate(0 -1)">
	<g>
		<g>
			<path d="M455.888,125.764c-0.004-0.009-0.008-0.018-0.012-0.028c-0.15-0.355-0.327-0.702-0.531-1.043
				c-0.096-0.164-0.193-0.327-0.3-0.484c-0.083-0.12-0.172-0.237-0.263-0.355c-0.231-0.304-0.476-0.598-0.748-0.871L334.567,3.516
				c-0.273-0.273-0.567-0.517-0.871-0.748c-0.117-0.091-0.235-0.179-0.355-0.263c-0.158-0.108-0.321-0.204-0.485-0.301
				c-0.341-0.205-0.688-0.381-1.043-0.531c-0.009-0.004-0.017-0.007-0.026-0.011c-1.07-0.447-2.185-0.659-3.293-0.645H64
				c-4.713,0-8.533,3.82-8.533,8.533v494.933c0,4.713,3.82,8.533,8.533,8.533h384c4.713,0,8.533-3.82,8.533-8.533V129.056
				C456.547,127.948,456.335,126.833,455.888,125.764z M427.399,120.484h-90.332V30.152L427.399,120.484z M72.533,495.95V18.084H320
				v110.933c0,4.713,3.82,8.533,8.533,8.533h110.933v358.4H72.533z"/>
			<path d="M354.075,444.75h-204.8c-4.713,0-8.533,3.821-8.533,8.533c0,4.713,3.82,8.533,8.533,8.533h204.8
				c4.713,0,8.533-3.821,8.533-8.533C362.609,448.571,358.788,444.75,354.075,444.75z"/>
			<path d="M166.342,427.684h162.133c4.713,0,8.533-3.82,8.533-8.533s-3.82-8.533-8.533-8.533H166.342
				c-4.713,0-8.533,3.82-8.533,8.533S161.629,427.684,166.342,427.684z"/>
			<path d="M243.142,265.018v68.268c-10.693-1.367-19.769-5.325-25.6-11.248v-22.354c0-4.713-3.82-8.533-8.533-8.533
				s-8.533,3.82-8.533,8.533v25.409c-0.001,0.054,0,0.108,0,0.163v25.628c0,4.713,3.82,8.533,8.533,8.533s8.533-3.82,8.533-8.533
				v-7.872c7.47,3.991,16.212,6.493,25.6,7.435v8.971c0,4.713,3.82,8.533,8.533,8.533c4.713,0,8.533-3.82,8.533-8.533v-9.062
				c28.11-3.466,51.196-23.797,51.196-50.671c0-26.633-23.196-47.147-51.196-50.662v-68.303c10.868,1.319,19.725,5.22,25.6,11.261
				v22.37c0,4.713,3.821,8.533,8.533,8.533c4.713,0,8.533-3.821,8.533-8.533v-25.41c0.001-0.053,0-0.107,0-0.16v-25.63
				c0-4.713-3.821-8.533-8.533-8.533c-4.713,0-8.533,3.82-8.533,8.533v7.773c-7.411-3.979-16.09-6.443-25.6-7.357v-8.949
				c0-4.713-3.82-8.533-8.533-8.533c-4.713,0-8.533,3.821-8.533,8.533v9.071c-28.004,3.512-51.204,24.027-51.204,50.663
				C191.938,241.106,215.083,261.53,243.142,265.018z M294.338,299.684c0,16.649-14.879,30.278-34.129,33.44v-66.861
				C279.353,269.48,294.338,283.246,294.338,299.684z M243.142,180.928v66.855c-19.201-3.187-34.138-16.886-34.138-33.432
				C209.004,197.91,223.994,184.143,243.142,180.928z"/>
		</g>
	</g>
</g>
</svg>
