<svg xmlns:inkscape="http://www.inkscape.org/namespaces/inkscape" xmlns:sodipodi="http://sodipodi.sourceforge.net/DTD/sodipodi-0.dtd" xmlns="http://www.w3.org/2000/svg" xmlns:svg="http://www.w3.org/2000/svg" width="498" height="95" viewBox="0 0 370 70" class="css-1j8o68f" version="1.1" id="svg14" sodipodi:docname="logo.svg">
  <defs id="defs18"/>
  <sodipodi:namedview id="namedview16" pagecolor="#ffffff" bordercolor="#000000" borderopacity="0.25" inkscape:showpageshadow="2" inkscape:pageopacity="0.0" inkscape:pagecheckerboard="0" inkscape:deskcolor="#d1d1d1"/>
  <g id="SvgjsG2864" featurekey="symbolFeature-0" transform="matrix(0.9572473321665765,0,0,0.9572473321665765,-4.78539450855787,-41.244917524620625)" fill="#111111">
    <g id="g8">
      <path d="M65.75,97.49H52.532c-1.381,0-2.5,1.119-2.5,2.5v8.422h5v-5.922h8.218v5.922h5V99.99   C68.25,98.609,67.131,97.49,65.75,97.49z" id="path2"/>
      <path d="M151.5,111.912H8.5c-1.381,0-2.5,1.119-2.5,2.5s1.119,2.5,2.5,2.5h143c1.381,0,2.5-1.119,2.5-2.5   S152.881,111.912,151.5,111.912z" id="path4"/>
      <path d="M27.227,98.515l32.233-33.232l33.612,34.655c0.659,0.68,1.565,1.063,2.513,1.063h4.126v7.41h5v-7.41h32.525v7.41h5v-7.41   h9.265c1.406,0,2.676-0.841,3.224-2.136s0.268-2.792-0.711-3.801l-43.542-44.893c-0.659-0.679-1.565-1.063-2.513-1.063H94.906   v-3.521c0-1.381-1.119-2.5-2.5-2.5h-9.128h-9.127c-1.381,0-2.5,1.119-2.5,2.5v3.521H52.042c-0.947,0-1.854,0.384-2.513,1.063   L5.987,95.065c-0.979,1.009-1.259,2.506-0.711,3.801s1.817,2.136,3.224,2.136h13.727v7.41h5V98.515z M85.778,48.088h4.128v17.336   h-4.128V48.088z M76.651,48.088h4.127v13.667L76.651,57.5V48.088z M71.651,56.109v2.404c0,0.65,0.253,1.274,0.705,1.741   l9.127,9.411c0.005,0.005,0.011,0.008,0.015,0.013c0.093,0.094,0.196,0.176,0.303,0.254c0.026,0.019,0.049,0.044,0.076,0.062   c0.136,0.092,0.281,0.171,0.434,0.235c0.017,0.007,0.035,0.01,0.052,0.016c0.135,0.053,0.274,0.099,0.419,0.128   c0.14,0.028,0.282,0.039,0.426,0.043c0.024,0.001,0.046,0.007,0.07,0.007h9.128c1.381,0,2.5-1.119,2.5-2.5V56.109h11.57   l36.753,37.893H97.065L60.313,56.109H71.651z M16.771,94.002l35.271-36.366l3.934,4.056l-31.338,32.31H16.771z" id="path6"/>
    </g>
  </g>
  <g id="SvgjsG2865" featurekey="nameFeature-0" transform="matrix(1.4254850159450703,0,0,1.4254850159450703,163.42980517795291,-1.5356226503968493)" fill="#111111">
    <path d="M13.6 16.4 l0 23.6 l-5.2 0 l0 -23.6 l-8 0 l0 -4.4 l21.2 0 l0 3 l-1.4 1.4 l-6.6 0 z M41.8 24.6 l0 7.2 l-13 0 l0 2 c0 1.2 0.8 2 2.2 2 l10 0 l0 4.2 l-11.4 0 c-3.4 0 -5.8 -2.4 -5.8 -5.4 l0 -10 c0 -3 2.4 -5.4 5.8 -5.4 l6.4 0 c3.4 0 5.8 2.4 5.8 5.4 z M28.8 25.4 l0 2.2 l8 0 l0 -2.2 c0 -1.2 -0.8 -2 -2.2 -2 l-3.6 0 c-1.4 0 -2.2 0.8 -2.2 2 z M63 40 l-3.4 0 l-0.6 -2.4 l-0.4 0 s-1.6 2.8 -4.6 2.8 l-3.2 0 c-3.4 0 -5.8 -2.4 -5.8 -5.4 l0 -2.2 c0 -3 2.4 -5.4 5.8 -5.4 l7.2 0 l0 -1.4 c0 -1.4 -0.8 -2.2 -2.2 -2.2 l-9 0 l0 -4.2 l10.4 0 c3.4 0 5.8 2.4 5.8 5.4 l0 15 z M54.8 36.2 c2.2 0 3.2 -2.2 3.2 -2.2 l0 -2.4 l-6 0 c-1.2 0 -2 0.8 -2 2 l0 0.6 c0 1.2 0.8 2 2 2 l2.8 0 z M89 19.2 l3.2 0 c3.4 0 5.8 2.4 5.8 5.4 l0 15.4 l-5 0 l0 -14.6 c0 -1.2 -0.8 -2 -2.2 -2 l-3.2 0 c-1.4 0 -2.2 0.8 -2.2 2 l0 14.6 l-5 0 l0 -14.6 c0 -1.2 -0.8 -2 -2.2 -2 l-2.2 0 c-2.2 0 -3.2 2.2 -3.2 2.2 l0 14.4 l-5 0 l0 -20.4 l3.4 0 l0.6 2.4 l0.4 0 s1.6 -2.8 4.6 -2.8 l2 0 c3.8 0 5 2.6 5 2.6 l0.2 0 s1.2 -2.6 5 -2.6 z M116 20.4 l0 -1.4 c0 -1.4 -1.2 -2.6 -2.8 -2.6 l-10 0 l-1.4 -1.4 l0 -3 l12.8 0 c4 0 6.6 2.4 6.6 6 l0 2.4 c0 3 -1.6 4.64 -4.4 7.2 l-8.4 7.6 l0 0.4 l13 0 l0 4.4 l-20.2 0 l0 -4.4 l12.8 -11.6 c0.84 -0.76 2 -2 2 -3.6 z M138.60000000000002 11.600000000000001 c4 0 6.6 2.6 6.6 6.2 l0 16.4 c0 3.6 -2.6 6.2 -6.6 6.2 l-7.4 0 c-4 0 -6.6 -2.6 -6.6 -6.2 l0 -16.4 c0 -3.6 2.6 -6.2 6.6 -6.2 l7.4 0 z M132.60000000000002 16 c-1.6 0 -2.8 1.2 -2.8 2.6 l0 14.8 c0 1.4 1.2 2.6 2.8 2.6 l4.6 0 c1.6 0 2.8 -1.2 2.8 -2.6 l0 -14.8 c0 -1.4 -1.2 -2.6 -2.8 -2.6 l-4.6 0 z" id="path11"/>
  </g>
</svg>

